<svg width="22" height="22" viewBox="0 0 22 22" fill="none" xmlns="http://www.w3.org/2000/svg">
<path d="M12.8 11C12.8 11.9941 11.9941 12.8 11 12.8C10.0059 12.8 9.2 11.9941 9.2 11C9.2 10.0058 10.0059 9.19995 11 9.19995C11.9941 9.19995 12.8 10.0058 12.8 11Z" fill="#0E0E0E"/>
<path d="M4.8 11C4.8 11.9941 3.99411 12.8 3 12.8C2.00588 12.8 1.2 11.9941 1.2 11C1.2 10.0059 2.00588 9.20001 3 9.20001C3.99411 9.20001 4.8 10.0059 4.8 11Z" fill="#0E0E0E"/>
<path d="M19 12.8C19.9941 12.8 20.8 11.9941 20.8 11C20.8 10.0058 19.9941 9.19995 19 9.19995C18.0059 9.19995 17.2 10.0058 17.2 11C17.2 11.9941 18.0059 12.8 19 12.8Z" fill="#0E0E0E"/>
</svg>
