<svg width="22" height="22" viewBox="0 0 22 22" fill="none" xmlns="http://www.w3.org/2000/svg">
<path d="M11 1C16.5228 1 21 5.47715 21 11C21 16.5228 16.5228 21 11 21C5.47715 21 1 16.5228 1 11C1 5.47715 5.47715 1 11 1ZM11 3C6.58172 3 3 6.58172 3 11C3 15.4183 6.58172 19 11 19C15.4183 19 19 15.4183 19 11C19 6.58172 15.4183 3 11 3ZM15 12.5C15 12.5 15 16 11 16C7 16 7 12.5 7 12.5H15ZM7.5 7C8.32843 7 9 7.67157 9 8.5V9.5C9 10.3284 8.32843 11 7.5 11C6.67157 11 6 10.3284 6 9.5V8.5C6 7.67157 6.67157 7 7.5 7ZM14.5 7C15.3284 7 16 7.67157 16 8.5V9.5C16 10.3284 15.3284 11 14.5 11C13.6716 11 13 10.3284 13 9.5V8.5C13 7.67157 13.6716 7 14.5 7Z" fill="#0E0E0E"/>
</svg>
