<svg width="22" height="22" viewBox="0 0 22 22" fill="none" xmlns="http://www.w3.org/2000/svg">
<path d="M18.0625 4.01659L19.0605 4.07909L18.9355 6.07519L17.9375 6.01269C16.2537 5.90746 15.3178 6.45811 14.6348 7.29686C13.8725 8.23288 13.3965 9.55302 12.8125 11.1318C12.2595 12.6269 11.6111 14.3411 10.4541 15.6582C9.2394 17.041 7.52341 17.9307 5 17.9307H4V15.9307H5C6.97656 15.9307 8.1356 15.2684 8.95215 14.3389C9.8264 13.3436 10.3655 11.9848 10.9375 10.4385C11.4785 8.97581 12.065 7.28551 13.084 6.03417C14.1135 4.76995 15.5526 3.97606 17.6367 4.00097L18.0625 4.01659Z" fill="#0E0E0E"/>
</svg>
