<svg width="22" height="22" viewBox="0 0 22 22" fill="none" xmlns="http://www.w3.org/2000/svg">
<path d="M15.8037 6.01917C18.8523 5.40943 22 7.53851 22 11.0006C21.9996 14.4623 18.8521 16.5907 15.8037 15.9811C14.2413 15.6686 12.8104 14.475 11.8555 13.5201C11.5301 13.1948 11.2419 12.8763 11 12.5963C10.7581 12.8763 10.4699 13.1948 10.1445 13.5201C9.18965 14.475 7.75868 15.6686 6.19629 15.9811C3.14788 16.5907 0.000377531 14.4623 0 11.0006C0 7.53851 3.14768 5.40943 6.19629 6.01917C7.75885 6.33173 9.18965 7.5262 10.1445 8.48108C10.4696 8.80616 10.7582 9.1234 11 9.40295C11.2418 9.1234 11.5304 8.80616 11.8555 8.48108C12.8104 7.5262 14.2412 6.33173 15.8037 6.01917ZM5.80371 7.98108C3.85236 7.59087 2 8.9399 2 11.0006C2.00037 13.061 3.85256 14.4093 5.80371 14.0192C6.741 13.8317 7.81045 13.026 8.73047 12.1061C9.13447 11.7021 9.47708 11.307 9.73047 10.9996C9.47719 10.6925 9.1341 10.2988 8.73047 9.89514C7.81039 8.97506 6.7411 8.16858 5.80371 7.98108ZM20 11.0006C20 8.9399 18.1476 7.59087 16.1963 7.98108C15.2589 8.16858 14.1896 8.97506 13.2695 9.89514C12.8659 10.2988 12.5228 10.6925 12.2695 10.9996C12.5229 11.307 12.8655 11.7021 13.2695 12.1061C14.1896 13.026 15.259 13.8317 16.1963 14.0192C18.1474 14.4093 19.9996 13.061 20 11.0006Z" fill="#0E0E0E"/>
</svg>
