<svg width="22" height="22" viewBox="0 0 22 22" fill="none" xmlns="http://www.w3.org/2000/svg">
<path d="M6.38559 9.00002C7.25275 6.77092 9.47905 4.99997 12 5C15.2316 5.00004 18 7.74129 18 11C18 14.2619 15.241 17.0001 12 17C10.4242 17 8.87255 16.3579 7.75735 15.2427L6.34314 16.6569C7.83359 18.1473 9.89399 19 12 19C16.3408 19.0001 20 15.3712 20 11C19.9999 6.63058 16.33 3.00005 12 3C9.00518 2.99996 6.37173 4.80165 5.00145 7.25951V3.00002L3.00003 5.00002V11.0014L9.00145 11L11.0015 9.00002H6.38559Z" fill="#0E0E0E"/>
</svg>
