<svg width="22" height="22" viewBox="0 0 22 22" fill="none" xmlns="http://www.w3.org/2000/svg">
<path fill-rule="evenodd" clip-rule="evenodd" d="M10.1716 6.17157L12.2112 1H13.7888L15.8284 6.17157L21 8.21121V9.78879L15.8284 11.8284L13.7888 17H12.2112L10.1716 11.8284L5 9.78879V8.21121L10.1716 6.17157ZM14.2866 7.71341L17.5488 9L14.2866 10.2866L13 13.5488L11.7134 10.2866L8.45121 9L11.7134 7.71341L13 4.45121L14.2866 7.71341Z" fill="#0E0E0E"/>
<path d="M4.64955 14.6495L5.62997 12H6.37003L7.35045 14.6495L10 15.63V16.37L7.35045 17.3505L6.37003 20H5.62997L4.64955 17.3505L2 16.37V15.63L4.64955 14.6495Z" fill="#0E0E0E"/>
</svg>
