<svg width="22" height="22" viewBox="0 0 22 22" fill="none" xmlns="http://www.w3.org/2000/svg">
<path fill-rule="evenodd" clip-rule="evenodd" d="M19.8713 1.81066C18.7904 0.729778 17.038 0.729782 15.9571 1.81066L12.4142 5.35355L9.91421 2.85355L0 12.7678L8.91421 21.682L18.8284 11.7678L16.3284 9.26777L19.8713 5.72487C20.9522 4.64399 20.9522 2.89154 19.8713 1.81066ZM17.3713 3.22487C17.6712 2.92504 18.1573 2.92504 18.4571 3.22487C18.7569 3.52471 18.7569 4.01083 18.4571 4.31066L13.5 9.26777L16 11.7678L14.9142 12.8536L8.82842 6.76777L9.91421 5.68198L12.4142 8.18198L17.3713 3.22487ZM7.41421 8.18198L2.82843 12.7678L3.91422 13.8536L7.2071 10.5607L8.62132 11.9749L5.32843 15.2678L6.41422 16.3536L9.70711 13.0607L11.1213 14.4749L7.82843 17.7678L8.91421 18.8536L13.5 14.2678L7.41421 8.18198Z" fill="#0E0E0E"/>
</svg>
