<svg width="22" height="22" viewBox="0 0 22 22" fill="none" xmlns="http://www.w3.org/2000/svg">
<path fill-rule="evenodd" clip-rule="evenodd" d="M13.0146 12.1592C13.4183 11.8903 13.9599 11.9684 14.2705 12.3409L15.2246 13.6856L15.7246 14.6856L16 14L20.5 15L21.2246 19.1856L19.2246 21.6856H17.2246L15.2246 21.1856L13.2246 20.1856L11.2812 18.2422C10.9577 17.9185 10.9072 17.4112 11.1611 17.0303C11.467 16.5719 12.0951 16.4645 12.5361 16.795L13.7246 17.6856H14.3584L14.2246 16.6856L13.2246 14.6856L12.751 13.4756C12.4603 13.0393 12.5784 12.4501 13.0146 12.1592ZM13.6436 1.0645C15.8466 0.330561 18.2276 1.5217 18.9619 3.72466C19.682 5.88563 18.5507 8.22727 16.4102 9.00591L5.51367 12.9688C4.53009 13.3266 4.00656 14.3991 4.33008 15.3946C4.66161 16.4141 5.75648 16.9721 6.77637 16.6416L8.8457 15.9707L9.36426 17.9053L7.39258 18.545C5.32262 19.2155 3.10041 18.0821 2.42773 16.0127C1.77113 13.9924 2.8337 11.815 4.83008 11.0889L15.7266 7.12602C16.8489 6.71765 17.4421 5.48961 17.0645 4.35649C16.6792 3.20152 15.4305 2.57707 14.2754 2.96196L10.6143 4.18169L10.0957 2.24712L13.6436 1.0645ZM5 1.00005C7.20914 1.00005 9 2.79091 9 5.00005C8.99991 7.20911 7.20908 9.00005 5 9.00005C2.79092 9.00005 1.00009 7.20911 1 5.00005C1 2.79091 2.79086 1.00005 5 1.00005ZM5 3.00005C3.89543 3.00005 3 3.89548 3 5.00005C3.00009 6.10454 3.89549 7.00005 5 7.00005C6.10451 7.00005 6.99991 6.10454 7 5.00005C7 3.89548 6.10457 3.00005 5 3.00005Z" fill="#0E0E0E"/>
</svg>
