<svg width="22" height="22" viewBox="0 0 22 22" fill="none" xmlns="http://www.w3.org/2000/svg">
<path d="M8.54102 19.152C8.75151 19.7349 9.42491 20.0017 9.97754 19.7213L11.4951 18.9508C12.4181 18.482 12.9998 17.5349 13 16.4996V13.9996H17.5723C18.8229 13.9995 19.7856 12.8949 19.6152 11.6559L18.9707 6.96936C18.7513 5.37415 17.4597 4.15969 15.8838 4.01428L15.5654 3.99963H3V11.9996H5L6.5 13.4996L8.54102 19.152ZM8.38086 12.8209L8.22949 12.401L5.82812 9.99963H5V5.99963H7V7.99963H9V5.99963H15.5654C16.2834 5.99969 16.8912 6.52963 16.9893 7.24084L17.6338 11.9283C17.6358 11.9432 17.6341 11.9506 17.6328 11.9547C17.6309 11.9608 17.6267 11.9694 17.6191 11.9781C17.6115 11.9869 17.6035 11.992 17.5977 11.9948C17.5938 11.9965 17.5871 11.9996 17.5723 11.9996H11V16.4996C10.9998 16.7817 10.8413 17.0397 10.5898 17.1676L10.0488 17.442L8.38086 12.8209Z" fill="#0E0E0E"/>
</svg>
