<svg width="22" height="22" viewBox="0 0 22 22" fill="none" xmlns="http://www.w3.org/2000/svg">
<path d="M8.54102 2.84778C8.7515 2.2649 9.42491 1.9981 9.97754 2.27844L11.4951 3.04895C12.4181 3.51774 12.9998 4.4649 13 5.50012V8.00012H17.5723C18.8229 8.00028 19.7856 9.10485 19.6152 10.3439L18.9707 15.0304C18.7513 16.6256 17.4597 17.8401 15.8838 17.9855L15.5654 18.0001H3V10.0001H5L6.5 8.50012L8.54102 2.84778ZM8.38086 9.17981L8.22949 9.59875L5.82812 12.0001H5V16.0001H7V14.0001H9V16.0001H15.5654C16.2834 16.0001 16.8912 15.4701 16.9893 14.7589L17.6338 10.0714C17.6358 10.0566 17.6341 10.0491 17.6328 10.045C17.6309 10.0389 17.6267 10.0304 17.6191 10.0216C17.6115 10.0129 17.6035 10.0078 17.5977 10.005C17.5938 10.0032 17.5871 10.0002 17.5723 10.0001H11V5.50012C10.9998 5.21804 10.8413 4.96001 10.5898 4.83215L10.0488 4.55774L8.38086 9.17981Z" fill="#0E0E0E"/>
</svg>
