<svg width="37" height="31" viewBox="0 0 37 31" fill="none" xmlns="http://www.w3.org/2000/svg">
<path fill-rule="evenodd" clip-rule="evenodd" d="M21.5532 6.19939L23.3855 8.02863L23.3825 8.03156L11.6372 19.7716C10.3526 21.0568 8.63876 21.7655 6.8154 21.7655C4.99204 21.7655 3.2782 21.0568 1.99356 19.7716C-0.66452 17.113 -0.66452 12.7899 1.99356 10.1314L12.1286 0L13.9608 1.82923L3.8258 11.9606C2.17708 13.6075 2.17708 16.2896 3.8258 17.9394C5.47452 19.5893 8.15924 19.5893 9.80796 17.9394L21.5532 6.19939ZM19.4339 4.12313L7.74194 15.8808L5.92154 14.0486L17.6135 2.29096C18.8923 1.00285 20.5972 0.294098 22.4117 0.294098C24.2262 0.294098 25.9311 1.00285 27.2099 2.29096L28.1215 3.20558L26.2982 5.03775L25.3865 4.12313C24.5932 3.32321 23.5395 2.88502 22.4117 2.88502C21.2839 2.88502 20.2272 3.32321 19.4339 4.12313ZM35.0064 10.2284C33.7218 8.94325 32.008 8.2345 30.1846 8.2345C28.3612 8.2345 26.6474 8.94325 25.3628 10.2284L13.6175 21.9684L15.4468 23.7977L27.192 12.0577C28.8408 10.4078 31.5255 10.4108 33.1742 12.0577C33.9704 12.8546 34.4115 13.9163 34.4115 15.0485C34.4115 16.1808 33.9734 17.2424 33.1742 18.0394L23.0392 28.1708L24.8714 30L35.0064 19.8687C37.6645 17.2101 37.6645 12.887 35.0064 10.2284ZM29.2596 14.1178L29.2611 14.1163H29.2581L29.2596 14.1178ZM29.2596 14.1178L17.5691 25.8739C15.9263 27.5238 13.2563 27.5267 11.6135 25.8739L10.7019 24.9593L8.8785 26.7915L9.79018 27.7061C11.0689 28.9942 12.7739 29.703 14.5883 29.703C16.4028 29.703 18.1078 28.9942 19.3865 27.7061L31.0785 15.9484L29.2596 14.1178Z" fill="black"/>
</svg>
