<svg width="208" height="30" viewBox="0 0 208 30" fill="none" xmlns="http://www.w3.org/2000/svg">
<path d="M29.3691 8.23938C31.1431 8.23947 32.8107 8.94844 34.0605 10.2335C36.6465 12.892 36.6464 17.2146 34.0605 19.8732L24.1992 30.005L22.416 28.1759L32.2773 18.0441C33.0548 17.2472 33.4813 16.1859 33.4814 15.0538C33.4814 13.9216 33.052 12.8596 32.2773 12.0626C30.6731 10.4159 28.0611 10.4128 26.457 12.0626L15.0293 23.8029L13.249 21.9738L24.6777 10.2335C25.9276 8.94847 27.5951 8.23938 29.3691 8.23938ZM30.2383 15.9532L18.8623 27.7111C17.6182 28.999 15.9596 29.7081 14.1943 29.7081C12.4289 29.7081 10.7695 28.9992 9.52536 27.7111L8.63864 26.796L10.4131 24.964L11.2998 25.879C12.8981 27.5316 15.4953 27.5286 17.0937 25.879L28.4687 14.1222L30.2383 15.9532ZM13.584 1.83411L3.72263 11.9659C2.11851 13.6128 2.11848 16.2946 3.72263 17.9445C5.3268 19.5941 7.93883 19.5942 9.54294 17.9445L20.9707 6.20422L22.7539 8.03333L22.7509 8.03625L11.3222 19.7765C10.0723 21.0615 8.40483 21.7706 6.63083 21.7706C4.85688 21.7705 3.18926 21.0616 1.93942 19.7765C-0.646536 17.118 -0.646413 12.7954 1.93942 10.1368L11.8008 0.00500488L13.584 1.83411ZM21.8056 0.29895C23.5711 0.29895 25.2304 1.00791 26.4746 2.29602L27.3613 3.21106L25.5879 5.04309L24.7002 4.12805C23.9283 3.32822 22.9029 2.88977 21.8056 2.88977C20.7086 2.88986 19.6809 3.32839 18.9092 4.12805L7.5322 15.8859L5.76169 14.0538L17.1377 2.29602C18.3817 1.00803 20.0403 0.299036 21.8056 0.29895Z" fill="white"/>
<path d="M66.9209 7.36588C67.8652 7.40767 68.7375 7.59547 69.5352 7.9274C70.4468 8.30677 71.2232 8.83987 71.8643 9.52505C72.5023 10.2102 72.9997 11.0274 73.3555 11.9831C73.7083 12.9358 73.8847 13.9799 73.8848 15.1149C73.8848 16.2501 73.6958 17.3535 73.3223 18.3004C72.9459 19.2472 72.4136 20.0674 71.7197 20.7585L73.6816 23.1032V23.8288H71.1904L69.8232 22.1295C69.3469 22.3501 68.835 22.5236 68.291 22.6471C67.747 22.7706 67.1615 22.8356 66.5352 22.8356C65.4059 22.8356 64.3882 22.6437 63.4824 22.2643C62.5767 21.8849 61.8061 21.3528 61.1738 20.6676C60.5416 19.9825 60.0501 19.1682 59.7031 18.2213C59.3561 17.2744 59.1826 16.2412 59.1826 15.1208C59.1827 14.0004 59.3561 12.9475 59.7031 11.9977C60.0501 11.0509 60.5446 10.2366 61.1826 9.55142C61.8208 8.8662 62.5942 8.33024 63.5 7.94205C64.4058 7.55681 65.4089 7.36295 66.5117 7.36295L66.9209 7.36588ZM115.073 7.99966C115.826 7.99966 116.541 8.05005 117.218 8.15298C117.894 8.25594 118.506 8.49148 119.053 8.85904C120.214 9.62367 120.797 10.7761 120.797 12.32C120.797 12.9905 120.697 13.573 120.5 14.07C120.303 14.567 120.037 14.9905 119.711 15.3405C119.382 15.6874 119.002 15.9725 118.573 16.1901C118.141 16.4077 117.694 16.5725 117.229 16.6813L121.473 21.987V22.7047H118.991L114.5 16.9284H112.839V22.7047H110.295V7.99966H115.073ZM50.4277 7.06607C51.9392 7.06607 53.1392 7.43058 54.0244 8.15982C54.9096 8.88916 55.4272 9.8661 55.5771 11.0895L53.125 11.2985C52.975 10.6721 52.6745 10.1865 52.2246 9.83951C51.7747 9.49252 51.1484 9.31904 50.3457 9.319C49.5958 9.319 49.0104 9.49538 48.5898 9.85123C48.1664 10.2041 47.9541 10.6597 47.9541 11.2155C47.9541 11.5359 48.0162 11.8006 48.1396 12.0182C48.2632 12.2329 48.4395 12.4219 48.6719 12.5807C48.9042 12.7395 49.1872 12.883 49.5195 13.0065C49.8547 13.1329 50.231 13.2658 50.6543 13.404L51.6953 13.736C52.3482 13.9448 52.9394 14.1629 53.4629 14.3922C53.9863 14.6216 54.4332 14.895 54.8008 15.2155C55.1683 15.5359 55.4504 15.9181 55.6475 16.362C55.8445 16.806 55.9453 17.3566 55.9453 18.0094C55.9453 18.7033 55.8096 19.3384 55.5361 19.9147C55.2627 20.491 54.8836 20.9825 54.3926 21.3854C53.9015 21.7883 53.3189 22.1004 52.6455 22.3239C51.972 22.5474 51.2248 22.6559 50.4072 22.6559C48.8956 22.6559 47.6337 22.2944 46.6279 21.5739C45.6192 20.8505 45.0019 19.762 44.7695 18.3004L47.2637 18.071V18.0651C47.4137 18.8149 47.7636 19.4034 48.3164 19.8268C48.8663 20.2501 49.5925 20.4615 50.4922 20.4616C51.3919 20.4616 52.0626 20.253 52.5449 19.8356C53.0272 19.418 53.2715 18.8704 53.2715 18.1881C53.2714 17.856 53.2065 17.5737 53.0771 17.3444C52.9478 17.1151 52.7684 16.9211 52.5361 16.7624C52.3038 16.6036 52.0188 16.4678 51.6777 16.3561C51.3366 16.2444 50.9537 16.1271 50.5332 16.0036L49.4307 15.692C48.7778 15.5127 48.1895 15.2916 47.6719 15.0358C47.1545 14.78 46.7103 14.4774 46.3428 14.1305C45.9752 13.7835 45.696 13.3832 45.5049 12.9333C45.3138 12.4834 45.2198 11.9569 45.2197 11.36C45.2197 10.763 45.3428 10.1569 45.5869 9.63052C45.831 9.10421 46.1781 8.65144 46.6279 8.27505C47.0779 7.89862 47.6226 7.604 48.2637 7.38931C48.9047 7.17472 49.6251 7.06608 50.4277 7.06607ZM143.068 7.06607C144.58 7.06607 145.78 7.43066 146.665 8.15982C147.55 8.88916 148.068 9.8661 148.218 11.0895L145.766 11.2985C145.616 10.6721 145.315 10.1865 144.865 9.83951C144.415 9.49254 143.789 9.319 142.986 9.319C142.236 9.319 141.651 9.49538 141.23 9.85123C140.807 10.2041 140.599 10.6598 140.599 11.2155C140.599 11.5358 140.66 11.8007 140.783 12.0182C140.907 12.2329 141.083 12.4219 141.315 12.5807C141.548 12.7395 141.831 12.883 142.163 13.0065C142.498 13.1329 142.874 13.2658 143.295 13.404L144.336 13.736C144.989 13.9448 145.58 14.1629 146.104 14.3922C146.627 14.6216 147.074 14.895 147.441 15.2155C147.809 15.536 148.092 15.9179 148.289 16.362C148.486 16.806 148.586 17.3566 148.586 18.0094C148.586 18.7034 148.45 19.3384 148.177 19.9147C147.903 20.4911 147.524 20.9825 147.033 21.3854C146.542 21.7883 145.96 22.1004 145.286 22.3239C144.613 22.5474 143.865 22.6559 143.048 22.6559C141.537 22.6559 140.275 22.2941 139.27 21.5739C138.261 20.8504 137.643 19.762 137.41 18.3004L139.902 18.071C140.053 18.8181 140.403 19.4044 140.954 19.8268C141.507 20.2503 142.231 20.4616 143.131 20.4616C144.031 20.4615 144.701 20.2531 145.184 19.8356C145.666 19.418 145.909 18.8704 145.909 18.1881C145.909 17.856 145.845 17.5737 145.716 17.3444C145.586 17.1151 145.407 16.9211 145.175 16.7624C144.942 16.6036 144.657 16.4679 144.315 16.3561C143.974 16.2444 143.592 16.127 143.172 16.0036L142.068 15.692C141.416 15.5127 140.828 15.2916 140.311 15.0358C139.793 14.7799 139.348 14.4775 138.983 14.1305C138.616 13.7835 138.337 13.3832 138.146 12.9333C137.954 12.4834 137.86 11.9569 137.86 11.36C137.86 10.7631 137.983 10.1569 138.228 9.63052C138.472 9.1041 138.82 8.65149 139.27 8.27505C139.719 7.90162 140.263 7.60397 140.904 7.38931C141.545 7.1747 142.266 7.0661 143.068 7.06607ZM80.5693 16.4831C80.5694 17.8446 80.8601 18.8566 81.4453 19.5153C82.0276 20.1739 82.8428 20.5026 83.8867 20.5026L84.0762 20.4987C85.028 20.4601 85.7783 20.1328 86.3242 19.5153C86.9065 18.8566 87.2002 17.8446 87.2002 16.4831V7.35709H89.7646V16.5446C89.7646 17.6268 89.6299 18.5563 89.3594 19.3268C89.0888 20.0973 88.7001 20.7293 88.2002 21.2233C87.6973 21.7173 87.0799 22.076 86.3477 22.3053C85.6155 22.5347 84.7953 22.65 83.8867 22.6501C82.978 22.6501 82.1395 22.5347 81.4131 22.3053C80.6867 22.0759 80.0722 21.7144 79.5723 21.2233C79.0694 20.7292 78.6837 20.0973 78.4102 19.3268C78.1396 18.5563 78.0049 17.6298 78.0049 16.5446V7.35709H80.5693V16.4831ZM187.394 7.35709C189.017 7.35709 190.376 7.73411 191.467 8.48404C192.561 9.23391 193.334 10.2334 193.787 11.4772L191.167 11.9889C190.808 11.2391 190.311 10.6448 189.67 10.2155C189.029 9.78622 188.255 9.569 187.35 9.569C186.621 9.56901 185.971 9.7068 185.4 9.98599C184.83 10.2654 184.347 10.6511 183.956 11.1393C183.565 11.6304 183.264 12.2071 183.059 12.8747C182.853 13.5421 182.75 14.2567 182.75 15.0182C182.75 15.7797 182.856 16.5119 183.07 17.1735C183.282 17.8351 183.594 18.4061 184 18.8883C184.406 19.3706 184.897 19.7506 185.477 20.0211C186.053 20.2945 186.715 20.4294 187.456 20.4294C188.418 20.4293 189.212 20.1967 189.838 19.7321C190.464 19.2676 190.949 18.7002 191.293 18.0299L193.873 18.4586V18.4674C193.641 19.0409 193.332 19.5827 192.955 20.0885C192.576 20.5942 192.12 21.0383 191.582 21.4176C191.047 21.797 190.423 22.0975 189.714 22.318C189.005 22.5385 188.217 22.6501 187.353 22.6501C186.253 22.65 185.252 22.4591 184.35 22.0768C183.45 21.6945 182.679 21.1643 182.044 20.4879C181.406 19.8117 180.915 19.0059 180.568 18.068C180.221 17.1328 180.048 16.1181 180.048 15.0241C180.048 13.9301 180.221 12.9153 180.568 11.9801C180.915 11.0452 181.409 10.2336 182.053 9.55142C182.697 8.8692 183.47 8.33024 184.37 7.94205C185.27 7.55094 186.279 7.35712 187.394 7.35709ZM106.822 21.6383V22.3561H104.255L102.764 18.1559H96.3232L94.832 22.3561H92.4092V21.6383H92.4121L97.6904 7.65103H101.605L106.822 21.6383ZM134.028 9.90396H126.997V13.7536H133.534V15.9655H126.997V20.1032H134.173V22.3561H124.468V7.65103H134.028V9.90396ZM178.286 21.6383V22.3561H175.719L174.228 18.1559H167.787L166.296 22.3561H163.873V21.6383H163.876L169.154 7.65103H173.068L178.286 21.6383ZM157.867 7.65103C158.882 7.65103 159.732 7.76636 160.42 7.99869C161.108 8.23102 161.664 8.55086 162.088 8.95963C162.511 9.36838 162.817 9.85112 163.005 10.404C163.193 10.9568 163.287 11.5539 163.287 12.195C163.287 12.9596 163.158 13.6245 162.902 14.192C162.646 14.7596 162.272 15.2268 161.787 15.5944C161.299 15.962 160.711 16.2392 160.014 16.4245C159.32 16.6097 158.534 16.7008 157.658 16.7008H155.012V22.3532H152.406V7.65103H157.867ZM206.854 9.74771H199.781V13.6364H206.356V15.8678H199.781V20.0475H206.998V22.32H197.237V7.47525H206.854V9.74771ZM66.2188 9.60513C65.5929 9.63539 65.0274 9.77148 64.5205 10.0133C63.9413 10.2898 63.4497 10.6717 63.0498 11.1628C62.647 11.6538 62.3416 12.2335 62.1299 12.901C61.9182 13.5714 61.8155 14.2976 61.8154 15.0856C61.8154 15.8738 61.924 16.6035 62.1416 17.2799C62.3592 17.9562 62.6675 18.5418 63.0703 19.0387C63.4702 19.5357 63.9618 19.9234 64.541 20.2086C65.1204 20.491 65.7765 20.6325 66.5117 20.6325C67.2469 20.6325 67.9031 20.4968 68.4824 20.2292C69.0615 19.9586 69.5494 19.5853 69.9521 19.1003C70.3551 18.6179 70.6642 18.0325 70.8818 17.3503C71.0994 16.668 71.208 15.9177 71.208 15.1032C71.208 14.2888 71.0994 13.5655 70.8818 12.8893C70.6642 12.2129 70.3551 11.6333 69.9521 11.151C69.5493 10.6688 69.0579 10.2898 68.4697 10.0133C67.8846 9.73698 67.2233 9.59833 66.4883 9.5983L66.2188 9.60513ZM139.904 18.071H139.902C139.902 18.069 139.902 18.067 139.901 18.0651L139.904 18.071ZM170.498 10.5602C170.416 10.7924 170.322 11.0515 170.219 11.3395C170.116 11.6275 170.001 11.9537 169.878 12.321C169.754 12.6886 169.601 13.1189 169.422 13.6129L168.572 15.9479L168.575 15.945H173.483L172.675 13.61C172.357 12.6955 172.101 11.951 171.907 11.3776C171.713 10.8042 171.543 10.2982 171.39 9.86295H170.748C170.666 10.0952 170.583 10.3279 170.498 10.5602ZM99.0381 10.5602C98.9558 10.7925 98.8617 11.0514 98.7588 11.3395C98.6559 11.6276 98.5404 11.9536 98.417 12.321C98.2935 12.6886 98.1403 13.1189 97.9609 13.6129L97.1123 15.945H102.02L101.211 13.61C100.893 12.6955 100.637 11.951 100.446 11.3776C100.252 10.8041 100.079 10.2982 99.9287 9.86295H99.2881C99.2057 10.0953 99.1234 10.3279 99.0381 10.5602ZM112.842 14.7165H115.076C116.061 14.7165 116.835 14.5371 117.402 14.1784C117.97 13.8196 118.256 13.2342 118.256 12.4225C118.256 11.611 117.967 11.0233 117.394 10.6969C116.82 10.3735 116.047 10.2086 115.076 10.2086H112.842V14.7165ZM155.012 14.4919H157.515C157.973 14.4918 158.394 14.454 158.776 14.3805C159.158 14.307 159.49 14.1799 159.775 14.0036C160.061 13.8271 160.285 13.5916 160.443 13.2917C160.602 12.9947 160.682 12.6301 160.682 12.195C160.682 11.7598 160.602 11.3748 160.443 11.069C160.285 10.7633 160.064 10.5247 159.788 10.3483C159.509 10.1719 159.179 10.0478 158.797 9.97134C158.415 9.89783 158 9.86003 157.556 9.86002H155.012V14.4919Z" fill="white"/>
</svg>
