<svg width="37" height="30" viewBox="0 0 37 30" fill="none" xmlns="http://www.w3.org/2000/svg">
<path d="M30.1846 8.23438C32.008 8.23438 33.7223 8.94335 35.0069 10.2285C37.6646 12.887 37.6645 17.2096 35.0069 19.8682L24.8712 30L23.0391 28.1709L33.1739 18.0391C33.973 17.2422 34.4111 16.181 34.4112 15.0488C34.4112 13.9166 33.9701 12.8546 33.1739 12.0576C31.5252 10.411 28.8411 10.408 27.1924 12.0576L15.4464 23.7979L13.6172 21.9688L25.3624 10.2285C26.647 8.94335 28.3613 8.23438 30.1846 8.23438ZM31.0782 15.9482L19.3868 27.7061C18.1081 28.9942 16.4024 29.7031 14.588 29.7031C12.7736 29.703 11.0687 28.9941 9.7901 27.7061L8.87897 26.791L10.7022 24.959L11.6133 25.874C13.2561 27.5268 15.9266 27.5239 17.5694 25.874L29.2589 14.1172L31.0782 15.9482ZM13.961 1.8291L3.82623 11.9609C2.17751 13.6078 2.17751 16.2896 3.82623 17.9395C5.47491 19.589 8.15901 19.589 9.80768 17.9395L21.5538 6.19922L23.3858 8.02832L23.3829 8.03125L11.6378 19.7715C10.3531 21.0566 8.63884 21.7656 6.81549 21.7656C4.99213 21.7656 3.27787 21.0567 1.99323 19.7715C-0.664459 17.113 -0.664335 12.7904 1.99323 10.1318L12.129 0L13.961 1.8291ZM22.4122 0.293945C24.2265 0.29405 25.9314 1.003 27.21 2.29102L28.1212 3.20605L26.2979 5.03809L25.3868 4.12305C24.5936 3.32322 23.5398 2.88487 22.4122 2.88477C21.2844 2.88477 20.2269 3.32313 19.4337 4.12305L7.74225 15.8809L5.92194 14.0488L17.6133 2.29102C18.8921 1.00291 20.5977 0.293945 22.4122 0.293945Z" fill="white"/>
</svg>
